<mxfile host="app.diagrams.net" agent="Mozilla/5.0 (Windows NT 10.0; Win64; x64) AppleWebKit/537.36 (KHTML, like Gecko) Chrome/131.0.0.0 Safari/537.36" version="24.9.2">
  <diagram name="Página-1" id="lP6gASdL4x5UdhJ1E4hK">
    <mxGraphModel dx="2261" dy="746" grid="1" gridSize="10" guides="1" tooltips="1" connect="1" arrows="1" fold="1" page="1" pageScale="1" pageWidth="827" pageHeight="1169" math="0" shadow="0">
      <root>
        <mxCell id="0" />
        <mxCell id="1" parent="0" />
        <mxCell id="5d4w-CVOC5kWj4m38jyy-5" style="edgeStyle=orthogonalEdgeStyle;rounded=0;orthogonalLoop=1;jettySize=auto;html=1;exitX=1;exitY=0.5;exitDx=0;exitDy=0;" edge="1" parent="1" source="5d4w-CVOC5kWj4m38jyy-1" target="5d4w-CVOC5kWj4m38jyy-4">
          <mxGeometry relative="1" as="geometry" />
        </mxCell>
        <mxCell id="5d4w-CVOC5kWj4m38jyy-1" value="Pessoa" style="rounded=0;whiteSpace=wrap;html=1;" vertex="1" parent="1">
          <mxGeometry x="-160" y="545" width="120" height="60" as="geometry" />
        </mxCell>
        <mxCell id="5d4w-CVOC5kWj4m38jyy-2" value="Banco" style="rounded=0;whiteSpace=wrap;html=1;" vertex="1" parent="1">
          <mxGeometry x="240" y="440" width="120" height="60" as="geometry" />
        </mxCell>
        <mxCell id="5d4w-CVOC5kWj4m38jyy-6" style="edgeStyle=orthogonalEdgeStyle;rounded=0;orthogonalLoop=1;jettySize=auto;html=1;exitX=0;exitY=0.5;exitDx=0;exitDy=0;entryX=1;entryY=0.5;entryDx=0;entryDy=0;" edge="1" parent="1" source="5d4w-CVOC5kWj4m38jyy-3" target="5d4w-CVOC5kWj4m38jyy-4">
          <mxGeometry relative="1" as="geometry" />
        </mxCell>
        <mxCell id="5d4w-CVOC5kWj4m38jyy-3" value="Company" style="rounded=0;whiteSpace=wrap;html=1;" vertex="1" parent="1">
          <mxGeometry x="760" y="545" width="120" height="60" as="geometry" />
        </mxCell>
        <mxCell id="5d4w-CVOC5kWj4m38jyy-8" value="" style="edgeStyle=orthogonalEdgeStyle;rounded=0;orthogonalLoop=1;jettySize=auto;html=1;exitX=0.5;exitY=1;exitDx=0;exitDy=0;" edge="1" parent="1" source="5d4w-CVOC5kWj4m38jyy-2" target="5d4w-CVOC5kWj4m38jyy-4">
          <mxGeometry relative="1" as="geometry">
            <mxPoint x="300" y="660" as="targetPoint" />
            <mxPoint x="300" y="530" as="sourcePoint" />
          </mxGeometry>
        </mxCell>
        <mxCell id="5d4w-CVOC5kWj4m38jyy-11" style="edgeStyle=orthogonalEdgeStyle;rounded=0;orthogonalLoop=1;jettySize=auto;html=1;exitX=0.5;exitY=1;exitDx=0;exitDy=0;entryX=0.5;entryY=0;entryDx=0;entryDy=0;" edge="1" parent="1" source="5d4w-CVOC5kWj4m38jyy-4" target="5d4w-CVOC5kWj4m38jyy-9">
          <mxGeometry relative="1" as="geometry" />
        </mxCell>
        <mxCell id="5d4w-CVOC5kWj4m38jyy-4" value="U" style="ellipse;whiteSpace=wrap;html=1;aspect=fixed;" vertex="1" parent="1">
          <mxGeometry x="285" y="560" width="30" height="30" as="geometry" />
        </mxCell>
        <mxCell id="5d4w-CVOC5kWj4m38jyy-9" value="Owner" style="rounded=0;whiteSpace=wrap;html=1;" vertex="1" parent="1">
          <mxGeometry x="240" y="670" width="120" height="40" as="geometry" />
        </mxCell>
        <mxCell id="5d4w-CVOC5kWj4m38jyy-12" value="Licença" style="ellipse;whiteSpace=wrap;html=1;align=center;" vertex="1" parent="1">
          <mxGeometry x="-100" y="410" width="90" height="50" as="geometry" />
        </mxCell>
        <mxCell id="5d4w-CVOC5kWj4m38jyy-15" style="edgeStyle=orthogonalEdgeStyle;rounded=0;orthogonalLoop=1;jettySize=auto;html=1;exitX=0.5;exitY=1;exitDx=0;exitDy=0;entryX=0;entryY=0.5;entryDx=0;entryDy=0;" edge="1" parent="1" source="5d4w-CVOC5kWj4m38jyy-14" target="5d4w-CVOC5kWj4m38jyy-1">
          <mxGeometry relative="1" as="geometry" />
        </mxCell>
        <mxCell id="5d4w-CVOC5kWj4m38jyy-14" value="CPF" style="ellipse;whiteSpace=wrap;html=1;align=center;" vertex="1" parent="1">
          <mxGeometry x="-290" y="430" width="90" height="50" as="geometry" />
        </mxCell>
        <mxCell id="5d4w-CVOC5kWj4m38jyy-16" style="edgeStyle=orthogonalEdgeStyle;rounded=0;orthogonalLoop=1;jettySize=auto;html=1;entryX=0.875;entryY=0;entryDx=0;entryDy=0;entryPerimeter=0;" edge="1" parent="1" source="5d4w-CVOC5kWj4m38jyy-12" target="5d4w-CVOC5kWj4m38jyy-1">
          <mxGeometry relative="1" as="geometry" />
        </mxCell>
        <mxCell id="5d4w-CVOC5kWj4m38jyy-18" style="edgeStyle=orthogonalEdgeStyle;rounded=0;orthogonalLoop=1;jettySize=auto;html=1;entryX=1;entryY=0.25;entryDx=0;entryDy=0;" edge="1" parent="1" source="5d4w-CVOC5kWj4m38jyy-17" target="5d4w-CVOC5kWj4m38jyy-1">
          <mxGeometry relative="1" as="geometry" />
        </mxCell>
        <mxCell id="5d4w-CVOC5kWj4m38jyy-17" value="Nome" style="ellipse;whiteSpace=wrap;html=1;align=center;" vertex="1" parent="1">
          <mxGeometry x="-50" y="340" width="90" height="50" as="geometry" />
        </mxCell>
        <mxCell id="5d4w-CVOC5kWj4m38jyy-20" style="edgeStyle=orthogonalEdgeStyle;rounded=0;orthogonalLoop=1;jettySize=auto;html=1;entryX=0;entryY=0;entryDx=0;entryDy=0;" edge="1" parent="1" source="5d4w-CVOC5kWj4m38jyy-19" target="5d4w-CVOC5kWj4m38jyy-1">
          <mxGeometry relative="1" as="geometry" />
        </mxCell>
        <mxCell id="5d4w-CVOC5kWj4m38jyy-19" value="Endereço" style="ellipse;whiteSpace=wrap;html=1;align=center;" vertex="1" parent="1">
          <mxGeometry x="-200" y="360" width="90" height="50" as="geometry" />
        </mxCell>
        <mxCell id="5d4w-CVOC5kWj4m38jyy-21" value="Attribute" style="ellipse;whiteSpace=wrap;html=1;align=center;" vertex="1" parent="1">
          <mxGeometry x="330" y="300" width="100" height="40" as="geometry" />
        </mxCell>
        <mxCell id="5d4w-CVOC5kWj4m38jyy-22" value="Attribute" style="ellipse;whiteSpace=wrap;html=1;align=center;" vertex="1" parent="1">
          <mxGeometry x="450" y="300" width="100" height="40" as="geometry" />
        </mxCell>
      </root>
    </mxGraphModel>
  </diagram>
</mxfile>
